<svg id="visual" viewBox="0 0 900 600" width="900" height="600" xmlns="http://www.w3.org/2000/svg" xmlns:xlink="http://www.w3.org/1999/xlink" version="1.1"><g stroke-width="1" stroke-linejoin="bevel"><path d="M399 325L280 365L420 372Z" fill="#0c2435" stroke="#0c2435"></path><path d="M399 325L280 323L280 365Z" fill="#297ea6" stroke="#297ea6"></path><path d="M280 365L304 482L420 372Z" fill="#19435d" stroke="#19435d"></path><path d="M280 323L213 333L280 365Z" fill="#277297" stroke="#277297"></path><path d="M280 365L233 492L304 482Z" fill="#00101c" stroke="#00101c"></path><path d="M304 482L422 501L420 372Z" fill="#1d4e6b" stroke="#1d4e6b"></path><path d="M178 437L233 492L280 365Z" fill="#205a7a" stroke="#205a7a"></path><path d="M304 482L406 600L422 501Z" fill="#00101c" stroke="#00101c"></path><path d="M399 325L333 194L280 323Z" fill="#15384f" stroke="#15384f"></path><path d="M280 323L237 185L213 333Z" fill="#246688" stroke="#246688"></path><path d="M213 333L178 437L280 365Z" fill="#00101c" stroke="#00101c"></path><path d="M512 490L536 426L420 372Z" fill="#205a7a" stroke="#205a7a"></path><path d="M420 372L530 264L399 325Z" fill="#1d4e6b" stroke="#1d4e6b"></path><path d="M399 325L423 163L333 194Z" fill="#277297" stroke="#277297"></path><path d="M422 501L512 490L420 372Z" fill="#297ea6" stroke="#297ea6"></path><path d="M536 426L530 264L420 372Z" fill="#0c2435" stroke="#0c2435"></path><path d="M333 194L237 185L280 323Z" fill="#205a7a" stroke="#205a7a"></path><path d="M213 333L112 422L178 437Z" fill="#277297" stroke="#277297"></path><path d="M490 193L423 163L399 325Z" fill="#1d4e6b" stroke="#1d4e6b"></path><path d="M333 194L273 101L237 185Z" fill="#277297" stroke="#277297"></path><path d="M530 264L490 193L399 325Z" fill="#246688" stroke="#246688"></path><path d="M271 600L406 600L304 482Z" fill="#246688" stroke="#246688"></path><path d="M422 501L537 600L512 490Z" fill="#00101c" stroke="#00101c"></path><path d="M196 600L271 600L233 492Z" fill="#277297" stroke="#277297"></path><path d="M233 492L271 600L304 482Z" fill="#297ea6" stroke="#297ea6"></path><path d="M101 309L112 422L213 333Z" fill="#246688" stroke="#246688"></path><path d="M97 479L196 600L233 492Z" fill="#112e42" stroke="#112e42"></path><path d="M603 391L577 264L530 264Z" fill="#0c2435" stroke="#0c2435"></path><path d="M530 264L565 234L490 193Z" fill="#15384f" stroke="#15384f"></path><path d="M613 475L603 391L536 426Z" fill="#15384f" stroke="#15384f"></path><path d="M536 426L603 391L530 264Z" fill="#081a28" stroke="#081a28"></path><path d="M106 201L101 309L213 333Z" fill="#081a28" stroke="#081a28"></path><path d="M577 264L565 234L530 264Z" fill="#246688" stroke="#246688"></path><path d="M97 479L233 492L178 437Z" fill="#205a7a" stroke="#205a7a"></path><path d="M0 479L97 479L112 422Z" fill="#081a28" stroke="#081a28"></path><path d="M112 422L97 479L178 437Z" fill="#112e42" stroke="#112e42"></path><path d="M490 193L470 123L423 163Z" fill="#277297" stroke="#277297"></path><path d="M423 163L405 101L333 194Z" fill="#246688" stroke="#246688"></path><path d="M625 60L470 123L490 193Z" fill="#277297" stroke="#277297"></path><path d="M470 123L405 101L423 163Z" fill="#277297" stroke="#277297"></path><path d="M537 600L613 475L512 490Z" fill="#00101c" stroke="#00101c"></path><path d="M512 490L613 475L536 426Z" fill="#081a28" stroke="#081a28"></path><path d="M405 101L273 101L333 194Z" fill="#297ea6" stroke="#297ea6"></path><path d="M237 185L106 201L213 333Z" fill="#297ea6" stroke="#297ea6"></path><path d="M406 600L537 600L422 501Z" fill="#205a7a" stroke="#205a7a"></path><path d="M90 68L106 201L237 185Z" fill="#081a28" stroke="#081a28"></path><path d="M260 0L237 61L273 101Z" fill="#277297" stroke="#277297"></path><path d="M273 101L237 61L237 185Z" fill="#246688" stroke="#246688"></path><path d="M101 309L0 392L112 422Z" fill="#297ea6" stroke="#297ea6"></path><path d="M97 479L80 600L196 600Z" fill="#112e42" stroke="#112e42"></path><path d="M0 288L0 392L101 309Z" fill="#246688" stroke="#246688"></path><path d="M0 479L80 600L97 479Z" fill="#112e42" stroke="#112e42"></path><path d="M537 600L623 600L613 475Z" fill="#205a7a" stroke="#205a7a"></path><path d="M738 432L701 317L603 391Z" fill="#19435d" stroke="#19435d"></path><path d="M603 391L701 317L577 264Z" fill="#081a28" stroke="#081a28"></path><path d="M577 264L664 186L565 234Z" fill="#0c2435" stroke="#0c2435"></path><path d="M565 234L625 60L490 193Z" fill="#1d4e6b" stroke="#1d4e6b"></path><path d="M708 468L603 391L613 475Z" fill="#205a7a" stroke="#205a7a"></path><path d="M0 208L0 288L106 201Z" fill="#297ea6" stroke="#297ea6"></path><path d="M106 201L0 288L101 309Z" fill="#297ea6" stroke="#297ea6"></path><path d="M0 392L0 479L112 422Z" fill="#0c2435" stroke="#0c2435"></path><path d="M701 317L664 186L577 264Z" fill="#0c2435" stroke="#0c2435"></path><path d="M491 0L388 0L405 101Z" fill="#112e42" stroke="#112e42"></path><path d="M703 600L708 468L613 475Z" fill="#112e42" stroke="#112e42"></path><path d="M491 0L405 101L470 123Z" fill="#0c2435" stroke="#0c2435"></path><path d="M405 101L388 0L273 101Z" fill="#0c2435" stroke="#0c2435"></path><path d="M388 0L260 0L273 101Z" fill="#081a28" stroke="#081a28"></path><path d="M0 87L0 208L106 201Z" fill="#297ea6" stroke="#297ea6"></path><path d="M90 68L237 185L237 61Z" fill="#205a7a" stroke="#205a7a"></path><path d="M791 421L738 432L805 492Z" fill="#00101c" stroke="#00101c"></path><path d="M708 468L738 432L603 391Z" fill="#277297" stroke="#277297"></path><path d="M814 168L704 86L664 186Z" fill="#081a28" stroke="#081a28"></path><path d="M587 0L491 0L470 123Z" fill="#0c2435" stroke="#0c2435"></path><path d="M199 0L90 68L237 61Z" fill="#205a7a" stroke="#205a7a"></path><path d="M260 0L199 0L237 61Z" fill="#0c2435" stroke="#0c2435"></path><path d="M0 479L0 600L80 600Z" fill="#246688" stroke="#246688"></path><path d="M664 186L625 60L565 234Z" fill="#19435d" stroke="#19435d"></path><path d="M623 600L703 600L613 475Z" fill="#15384f" stroke="#15384f"></path><path d="M805 492L738 432L708 468Z" fill="#15384f" stroke="#15384f"></path><path d="M738 432L806 328L701 317Z" fill="#0c2435" stroke="#0c2435"></path><path d="M664 186L704 86L625 60Z" fill="#15384f" stroke="#15384f"></path><path d="M625 60L587 0L470 123Z" fill="#00101c" stroke="#00101c"></path><path d="M68 0L0 87L90 68Z" fill="#297ea6" stroke="#297ea6"></path><path d="M90 68L0 87L106 201Z" fill="#246688" stroke="#246688"></path><path d="M814 168L664 186L701 317Z" fill="#00101c" stroke="#00101c"></path><path d="M625 60L675 0L587 0Z" fill="#15384f" stroke="#15384f"></path><path d="M791 421L806 328L738 432Z" fill="#205a7a" stroke="#205a7a"></path><path d="M199 0L68 0L90 68Z" fill="#19435d" stroke="#19435d"></path><path d="M703 600L805 492L708 468Z" fill="#00101c" stroke="#00101c"></path><path d="M791 421L900 384L806 328Z" fill="#277297" stroke="#277297"></path><path d="M703 600L786 600L805 492Z" fill="#246688" stroke="#246688"></path><path d="M795 80L675 0L704 86Z" fill="#277297" stroke="#277297"></path><path d="M704 86L675 0L625 60Z" fill="#15384f" stroke="#15384f"></path><path d="M806 328L814 168L701 317Z" fill="#1d4e6b" stroke="#1d4e6b"></path><path d="M900 236L814 168L806 328Z" fill="#00101c" stroke="#00101c"></path><path d="M68 0L0 0L0 87Z" fill="#297ea6" stroke="#297ea6"></path><path d="M814 168L795 80L704 86Z" fill="#277297" stroke="#277297"></path><path d="M900 528L900 384L805 492Z" fill="#246688" stroke="#246688"></path><path d="M805 492L900 384L791 421Z" fill="#246688" stroke="#246688"></path><path d="M900 68L833 0L795 80Z" fill="#297ea6" stroke="#297ea6"></path><path d="M900 384L900 327L806 328Z" fill="#00101c" stroke="#00101c"></path><path d="M900 327L900 236L806 328Z" fill="#297ea6" stroke="#297ea6"></path><path d="M786 600L900 528L805 492Z" fill="#277297" stroke="#277297"></path><path d="M786 600L900 600L900 528Z" fill="#297ea6" stroke="#297ea6"></path><path d="M900 68L795 80L814 168Z" fill="#0c2435" stroke="#0c2435"></path><path d="M795 80L833 0L675 0Z" fill="#246688" stroke="#246688"></path><path d="M900 236L900 68L814 168Z" fill="#081a28" stroke="#081a28"></path><path d="M900 68L900 0L833 0Z" fill="#19435d" stroke="#19435d"></path></g></svg>